<?xml version="1.0" encoding="utf-8" ?><svg xmlns="http://www.w3.org/2000/svg" xmlns:xlink="http://www.w3.org/1999/xlink" width="4096" height="4096" viewBox="0 0 4096 4096"><path d="M2254.62 940.481C2260.76 939.903 2266.82 939.355 2272.98 939.833C2290.14 941.167 2306.03 949.406 2317.01 962.664C2334.7 983.903 2383.03 1158.03 2395.1 1197.36L2521.16 1613.57L2592.63 1848.08C2603.72 1884.29 2614.7 1920.52 2625.96 1956.67C2627.73 1963.55 2626.92 1974.77 2625.64 1981.93C2616.21 2034.49 2601.5 2087.72 2588.83 2139.65C2565.79 2238.33 2542.05 2336.86 2517.64 2435.21L2462.72 2663.27C2421.62 2834.28 2438.67 2811.81 2278.21 2881.93C2199.46 2916.69 2120.36 2950.65 2040.91 2983.81C1987.36 3006.59 1885.99 3070.86 1837.35 3020.01C1798.36 2979.26 1760.24 2925.1 1726.31 2879.12L1333.84 2365.76L1254.74 2261.52C1230.95 2230.35 1174.91 2170.64 1202.49 2127.71C1226.18 2090.85 1262.76 2052.67 1292.09 2019.03L1500.89 1781.14L2047.93 1158.28C2105.97 1093.08 2163.26 1026.52 2221.54 961.483C2232.11 949.687 2239.99 945.559 2254.62 940.481ZM2060.48 2565.41C2051.39 2586.99 2028.68 2649.2 2024.5 2670.14C2034.45 2655.46 2051.6 2628.75 2057.4 2611.91C2063.89 2605.38 2109.53 2519.97 2116.6 2507.41C2174.53 2404.37 2231.89 2301.01 2288.67 2197.33C2317.31 2145.48 2346.46 2093.72 2374.95 2041.82C2379.62 2033.32 2384.08 2022.28 2386.38 2013.11C2390.62 1996.13 2392.2 1974.6 2387.53 1957.69C2375.05 1912.47 2352.03 1852.16 2335.26 1808.61C2321.83 1773.73 2288.83 1674.32 2272.82 1647.21C2266.47 1750.35 2279.33 1866.15 2268.28 1968.86C2264.02 2008.47 2230.38 2085.65 2215.74 2126.79L2105.3 2438.25C2092.01 2476.29 2072.24 2524.15 2061.58 2561.49L2060.48 2565.41Z"/><path fill="#F2F4F0" fill-opacity="0.14117648" d="M2060.48 2565.41C2061.87 2583 2044.78 2609.52 2047.12 2619.52C2053.74 2618.56 2051.81 2616.38 2057.4 2611.91C2051.6 2628.75 2034.45 2655.46 2024.5 2670.14C2028.68 2649.2 2051.39 2586.99 2060.48 2565.41Z"/></svg>